HIERARCHY
ROOT Hips
{
	OFFSET 0.000000 0.000000 0.000000
	CHANNELS 6 Xposition Yposition Zposition Zrotation Yrotation Xrotation 
	JOINT LHipJoint
	{
		OFFSET 0.000000 0.000000 0.000000
		CHANNELS 3 Zrotation Yrotation Xrotation
		JOINT LeftUpLeg
		{
			OFFSET 1.363060 -1.794630 0.839290
			CHANNELS 3 Zrotation Yrotation Xrotation
			JOINT LeftLeg
			{
				OFFSET 2.448110 -6.726130 0.000000
				CHANNELS 3 Zrotation Yrotation Xrotation
				JOINT LeftFoot
				{
					OFFSET 2.562200 -7.039590 0.000000
					CHANNELS 3 Zrotation Yrotation Xrotation
					JOINT LeftToeBase
					{
						OFFSET 0.157640 -0.433110 2.322550
						CHANNELS 3 Zrotation Yrotation Xrotation
						End Site
						{
							OFFSET 0.000000 0.000000 0.000000
						}
					}
				}
			}
		}
	}
	JOINT RHipJoint
	{
		OFFSET 0.000000 0.000000 0.000000
		CHANNELS 3 Zrotation Yrotation Xrotation
		JOINT RightUpLeg
		{
			OFFSET -1.305520 -1.794630 0.839290
			CHANNELS 3 Zrotation Yrotation Xrotation
			JOINT RightLeg
			{
				OFFSET -2.542530 -6.985550 0.000000
				CHANNELS 3 Zrotation Yrotation Xrotation
				JOINT RightFoot
				{
					OFFSET -2.568260 -7.056230 0.000000
					CHANNELS 3 Zrotation Yrotation Xrotation
					JOINT RightToeBase
					{
						OFFSET -0.164730 -0.452590 2.363150
						CHANNELS 3 Zrotation Yrotation Xrotation
						End Site
						{
							OFFSET 0.000000 0.000000 0.000000
						}
					}
				}
			}
		}
	}
	JOINT LowerBack
	{
		OFFSET 0.000000 0.000000 0.000000
		CHANNELS 3 Zrotation Yrotation Xrotation
		JOINT Spine
		{
			OFFSET 0.028270 2.035590 -0.193380
			CHANNELS 3 Zrotation Yrotation Xrotation
			JOINT Spine1
			{
				OFFSET 0.056720 2.048850 -0.042750
				CHANNELS 3 Zrotation Yrotation Xrotation
				JOINT Neck
				{
					OFFSET 0.000000 0.000000 0.000000
					CHANNELS 3 Zrotation Yrotation Xrotation
					JOINT Neck1
					{
						OFFSET -0.054170 1.746240 0.172020
						CHANNELS 3 Zrotation Yrotation Xrotation
						JOINT Head
						{
							OFFSET 0.104070 1.761360 -0.123970
							CHANNELS 3 Zrotation Yrotation Xrotation
							End Site
							{
								OFFSET 0.000000 0.000000 0.000000
							}
						}
					}
				}
				JOINT LeftShoulder
				{
					OFFSET 0.000000 0.000000 0.000000
					CHANNELS 3 Zrotation Yrotation Xrotation
					JOINT LeftArm
					{
						OFFSET 3.362410 1.200890 -0.311210
						CHANNELS 3 Zrotation Yrotation Xrotation
						JOINT LeftForeArm
						{
							OFFSET 4.983000 -0.000000 -0.000000
							CHANNELS 3 Zrotation Yrotation Xrotation
							JOINT LeftHand
							{
								OFFSET 3.483560 -0.000000 -0.000000
								CHANNELS 3 Zrotation Yrotation Xrotation
								JOINT LeftFingerBase
								{
									OFFSET 0.000000 0.000000 0.000000
									CHANNELS 3 Zrotation Yrotation Xrotation
									JOINT LeftHandIndex1
									{
										OFFSET 0.715260 -0.000000 -0.000000
										CHANNELS 3 Zrotation Yrotation Xrotation
										End Site
										{
											OFFSET 0.000000 0.000000 0.000000
										}
									}
								}
								JOINT LThumb
								{
									OFFSET 0.000000 0.000000 0.000000
									CHANNELS 3 Zrotation Yrotation Xrotation
									End Site
									{
										OFFSET 0.000000 0.000000 0.000000
									}
								}
							}
						}
					}
				}
				JOINT RightShoulder
				{
					OFFSET 0.000000 0.000000 0.000000
					CHANNELS 3 Zrotation Yrotation Xrotation
					JOINT RightArm
					{
						OFFSET -3.136600 1.374050 -0.404650
						CHANNELS 3 Zrotation Yrotation Xrotation
						JOINT RightForeArm
						{
							OFFSET -5.241900 -0.000000 -0.000000
							CHANNELS 3 Zrotation Yrotation Xrotation
							JOINT RightHand
							{
								OFFSET -3.444170 -0.000000 -0.000000
								CHANNELS 3 Zrotation Yrotation Xrotation
								JOINT RightFingerBase
								{
									OFFSET 0.000000 0.000000 0.000000
									CHANNELS 3 Zrotation Yrotation Xrotation
									JOINT RightHandIndex1
									{
										OFFSET -0.622530 -0.000000 -0.000000
										CHANNELS 3 Zrotation Yrotation Xrotation
										End Site
										{
											OFFSET 0.000000 0.000000 0.000000
										}
									}
								}
								JOINT RThumb
								{
									OFFSET 0.000000 0.000000 0.000000
									CHANNELS 3 Zrotation Yrotation Xrotation
									End Site
									{
										OFFSET 0.000000 0.000000 0.000000
									}
								}
							}
						}
					}
				}
			}
		}
	}
}
MOTION
Frames: 11
Frame Time: 0.008333
-22.192345 16.535781 -0.136835 25.180354 87.403448 47.488214 -8.948237 -0.988278 3.979119 -5.091349 -8.866920 -52.547360 -1.563217 0.402836 19.502439 0.719860 5.016052 8.909720 2.056600 -0.000000 -30.693699 9.913370 -2.896804 -1.411013 6.983403 -4.553994 2.290640 2.078936 -0.104852 10.240340 -1.083669 -4.638762 -5.602407 -0.407700 -0.000000 -67.826701 -5.555994 0.243873 -1.630025 -2.073218 0.486072 -3.138178 -6.610447 0.381352 1.325245 8.493172 -1.969804 -4.793553 -3.684325 -0.307850 0.624803 0.000000 0.000000 0.000000 -1.304597 12.258343 1.576481 -55.267374 18.887412 15.846640 -3.154013 -39.076323 0.001445 1.261088 0.887560 0.012340 -0.115198 -0.106863 -0.000000 0.000000 0.000000 0.000000 0.000000 0.000000 0.000000 15.654980 1.705555 1.020594 54.606465 19.452382 20.669871 2.366835 46.911424 0.016651 4.838362 5.353661 0.231888 0.030083 -0.148621 0.000000 0.000000 0.000000 0.000000 0.000000 0.000000 0.000000 
-22.024793 16.549888 -0.160660 29.299365 87.568407 51.542431 -8.820319 -0.926508 3.999460 -5.377982 -9.238797 -52.446327 -1.513216 0.460492 20.714925 0.756759 5.188438 8.365943 2.056800 0.000000 -29.879700 10.166947 -3.007893 -1.486518 6.465094 -5.202688 1.719695 1.985417 -0.372775 12.016197 -0.982773 -4.352293 -4.199302 -0.516400 -0.000000 -70.471900 -5.722432 0.167431 -1.631534 -2.131818 0.418102 -3.134566 -6.734646 0.315374 1.353915 8.824572 -2.021891 -4.839632 -3.773133 -0.313653 0.607797 0.000000 0.000000 0.000000 -1.606216 12.391309 1.571528 -55.061601 18.287513 15.770682 -3.185908 -38.622008 0.001227 1.180299 0.934953 0.012229 -0.113888 -0.108169 -0.000000 0.000000 0.000000 0.000000 0.000000 0.000000 0.000000 16.366311 1.605559 1.001421 54.679717 19.068886 20.255396 2.385063 46.666149 0.016579 4.797496 5.420090 0.232596 0.030924 -0.147487 0.000000 0.000000 0.000000 0.000000 0.000000 0.000000 0.000000 
-21.857908 16.567579 -0.184319 33.596937 87.704164 55.749729 -8.674353 -0.844713 4.015265 -5.717601 -9.566757 -52.216424 -1.488890 0.500340 21.788380 0.792059 5.332071 7.601922 2.025900 0.000000 -29.304700 10.444076 -3.102706 -1.575429 5.917729 -5.945920 1.028135 1.869483 -0.648791 13.978535 -0.891031 -4.074692 -2.658280 -0.614300 0.000000 -72.881200 -5.880303 0.105430 -1.616561 -2.191099 0.364165 -3.129009 -6.859630 0.264028 1.381462 9.146416 -2.063061 -4.875836 -3.861320 -0.319479 0.593032 0.000000 0.000000 0.000000 -1.937342 12.528227 1.563853 -54.830243 17.578989 15.723614 -3.221182 -38.096209 0.000986 1.100533 0.991613 0.012118 -0.112656 -0.109310 -0.000000 0.000000 0.000000 0.000000 0.000000 0.000000 0.000000 17.056933 1.518757 0.974384 54.804834 18.644327 19.746130 2.405502 46.362340 0.016480 4.740292 5.491322 0.232704 0.031925 -0.146251 0.000000 0.000000 0.000000 0.000000 0.000000 0.000000 0.000000 
-21.692318 16.588503 -0.207832 37.844233 87.798257 59.885623 -8.520737 -0.742535 4.027398 -6.104368 -9.842968 -51.854381 -1.490128 0.524404 22.695989 0.824731 5.438094 6.672972 1.964400 0.000000 -28.937700 10.733356 -3.175926 -1.674410 5.350004 -6.761677 0.218586 1.727069 -0.926620 16.116339 -0.818500 -3.848091 -0.980872 -0.703700 0.000000 -74.945800 -6.035895 0.060226 -1.589151 -2.251290 0.326955 -3.121982 -6.982692 0.229831 1.409334 9.455018 -2.095892 -4.901350 -3.947214 -0.325209 0.580832 0.000000 0.000000 0.000000 -2.288474 12.667646 1.552547 -54.592821 16.764984 15.682567 -3.260047 -37.493646 0.000730 1.027419 1.057865 0.012008 -0.111571 -0.110157 -0.000000 0.000000 0.000000 0.000000 0.000000 0.000000 0.000000 17.716667 1.442358 0.939778 54.983699 18.192226 19.151445 2.428205 45.993791 0.016352 4.665852 5.566480 0.232011 0.033090 -0.144888 0.000000 0.000000 0.000000 0.000000 0.000000 0.000000 0.000000 
-21.528387 16.612237 -0.231399 41.792471 87.848056 63.707586 -8.372237 -0.624450 4.036510 -6.526758 -10.059991 -51.368743 -1.514468 0.535016 23.423549 0.853272 5.497353 5.641658 1.875300 0.000000 -28.735000 11.019528 -3.224774 -1.777705 4.782108 -7.614118 -0.701034 1.556543 -1.199208 18.406651 -0.776644 -3.726934 0.821242 -0.793200 -0.000000 -76.539800 -6.191027 0.031686 -1.555272 -2.311290 0.306419 -3.114852 -7.100935 0.212417 1.436193 9.745371 -2.110460 -4.912194 -4.028968 -0.330744 0.572423 0.000000 0.000000 0.000000 -2.649425 12.806057 1.538492 -54.369972 15.856250 15.625391 -3.302538 -36.815110 0.000474 0.969369 1.133970 0.012098 -0.110724 -0.110552 -0.000000 0.000000 0.000000 0.000000 0.000000 0.000000 0.000000 18.330067 1.386045 0.897074 55.222356 17.707021 18.463213 2.452551 45.564382 0.016192 4.582329 5.639303 0.230620 0.034269 -0.143362 0.000000 0.000000 0.000000 0.000000 0.000000 0.000000 0.000000 
-21.366634 16.638299 -0.254692 45.385355 87.853366 67.162231 -8.231695 -0.493786 4.041593 -6.983270 -10.221039 -50.762319 -1.559758 0.533017 23.958862 0.876634 5.511814 4.574960 1.767000 -0.000000 -28.644000 11.299157 -3.245583 -1.882375 4.219088 -8.480786 -1.718390 1.358536 -1.460521 20.826293 -0.773532 -3.750298 2.722525 -0.894600 -0.000001 -77.545700 -6.354274 0.016834 -1.515495 -2.371861 0.300174 -3.106756 -7.212440 0.209320 1.464351 10.019479 -2.129763 -4.911708 -4.105700 -0.335997 0.566989 0.000000 0.000000 0.000000 -3.005809 12.922712 1.520097 -54.184469 14.884727 15.509368 -3.347697 -36.078073 0.000231 0.931125 1.219014 0.012490 -0.110070 -0.110408 -0.000000 0.000000 0.000000 0.000000 0.000000 0.000000 0.000000 18.901730 1.322594 0.850149 55.510835 17.234757 17.727306 2.479304 45.059555 0.015999 4.477242 5.713591 0.228027 0.035682 -0.141670 0.000000 0.000000 0.000000 0.000000 0.000000 0.000000 0.000000 
-21.207131 16.666206 -0.278012 48.468498 87.827643 70.103645 -8.109412 -0.358936 4.042814 -7.452098 -10.321088 -50.061748 -1.620206 0.520992 24.314568 0.892744 5.474459 3.529554 1.645300 -0.000000 -28.613601 11.557293 -3.239166 -1.981212 3.697778 -9.314468 -2.816554 1.138626 -1.703655 23.338141 -0.817319 -3.971690 4.683365 -1.029500 0.000000 -77.840100 -6.514218 0.012579 -1.475856 -2.429366 0.304433 -3.099276 -7.314636 0.216456 1.490704 10.271143 -2.135774 -4.895521 -4.175751 -0.340886 0.565919 0.000000 0.000000 0.000000 -3.348820 13.015557 1.500135 -54.054017 13.866410 15.321103 -3.394807 -35.293373 0.000021 0.923931 1.311166 0.013182 -0.109667 -0.109558 -0.000000 0.000000 0.000000 0.000000 0.000000 0.000000 0.000000 19.413835 1.269640 0.798205 55.855267 16.756403 16.925127 2.507348 44.493470 0.015774 4.366629 5.779189 0.224733 0.037067 -0.139769 0.000000 0.000000 0.000000 0.000000 0.000000 0.000000 0.000000 
-21.050478 16.695456 -0.301127 51.109784 87.779948 72.601055 -8.003871 -0.223117 4.039250 -7.925619 -10.367703 -49.280979 -1.691614 0.500230 24.501913 0.900972 5.392424 2.554908 1.519700 0.000000 -28.596101 11.793369 -3.203735 -2.072186 3.228934 -10.092990 -3.976735 0.904581 -1.924062 25.912821 -0.909058 -4.410220 6.646020 -1.218100 -0.000001 -77.348000 -6.669636 0.014779 -1.435448 -2.483032 0.315043 -3.092513 -7.406233 0.229502 1.512665 10.500187 -2.119177 -4.861611 -4.238402 -0.345368 0.569775 0.000000 0.000000 0.000000 -3.661057 13.077608 1.481304 -53.996672 12.821169 15.044798 -3.443003 -34.474501 -0.000128 0.957402 1.404865 0.014478 -0.109497 -0.107861 -0.000000 0.000000 0.000000 0.000000 0.000000 0.000000 0.000000 19.861911 1.235553 0.742163 56.257035 16.265367 16.050535 2.535608 43.878605 0.015523 4.261810 5.828991 0.221037 0.038241 -0.137664 0.000000 0.000000 0.000000 0.000000 0.000000 0.000000 0.000000 
-20.896538 16.725649 -0.324122 53.351940 87.725074 74.701303 -7.917035 -0.090954 4.030768 -8.385779 -10.364871 -48.445192 -1.768395 0.473074 24.547089 0.900785 5.269586 1.683004 1.396600 -0.000000 -28.555400 12.001835 -3.140967 -2.152559 2.836381 -10.789071 -5.179800 0.667096 -2.118734 28.516785 -1.046275 -5.076895 8.540623 -1.480900 -0.000000 -76.054001 -6.809214 0.019598 -1.395231 -2.530183 0.327508 -3.086115 -7.486478 0.243962 1.530748 10.705576 -2.091090 -4.814019 -4.293416 -0.349394 0.577668 0.000000 0.000000 0.000000 -3.937682 13.099808 1.463767 -54.020971 11.775720 14.670462 -3.490018 -33.649627 -0.000198 1.038635 1.495322 0.016376 -0.109465 -0.105308 -0.000000 0.000000 0.000000 0.000000 0.000000 0.000000 0.000000 20.247375 1.206943 0.685082 56.704881 15.786754 15.133369 2.564204 43.215083 0.015245 4.158683 5.863783 0.216738 0.039304 -0.135371 0.000000 0.000000 0.000000 0.000000 0.000000 0.000000 0.000000 
-20.745642 16.756470 -0.346447 55.375319 87.662507 76.580952 -7.839926 0.039516 4.016505 -8.836358 -10.331756 -47.557429 -1.848000 0.440411 24.464046 0.894299 5.127321 0.935003 1.284400 0.000000 -28.465700 12.190507 -3.048625 -2.225455 2.506762 -11.402429 -6.405609 0.435696 -2.287922 31.125593 -1.219718 -5.942588 10.287291 -1.824100 0.000000 -74.043000 -6.942304 0.023249 -1.348981 -2.573133 0.338644 -3.078809 -7.556550 0.256676 1.544028 10.894126 -2.078628 -4.757976 -4.342122 -0.353035 0.588204 0.000000 0.000000 0.000000 -4.167578 13.048669 1.446766 -54.130915 10.785916 14.173156 -3.532855 -32.866555 -0.000185 1.167852 1.578780 0.019075 -0.109348 -0.102055 -0.000000 0.000000 0.000000 0.000000 0.000000 0.000000 0.000000 20.590886 1.153312 0.633562 57.179811 15.365938 14.231010 2.593841 42.496150 0.014948 4.041828 5.888974 0.211338 0.040536 -0.132979 0.000000 0.000000 0.000000 0.000000 0.000000 0.000000 0.000000 
-20.597746 16.787579 -0.368513 57.210705 87.608331 78.274453 -7.777654 0.163282 3.997267 -9.254040 -10.270453 -46.646928 -1.925000 0.405287 24.291577 0.881874 4.966916 0.307903 1.183400 0.000000 -28.320300 12.350842 -2.934227 -2.289323 2.266358 -11.913347 -7.639178 0.220571 -2.433856 33.708155 -1.419679 -6.984866 11.808790 -2.248900 -0.000001 -71.478300 -7.050528 0.022706 -1.298619 -2.607803 0.344277 -3.071931 -7.615813 0.263290 1.548325 11.058871 -2.033195 -4.688567 -4.383931 -0.356245 0.602714 0.000000 0.000000 0.000000 -4.346614 12.962314 1.436445 -54.324141 9.815480 13.612710 -3.571352 -32.115727 -0.000066 1.354344 1.643388 0.022577 -0.109253 -0.097954 -0.000000 0.000000 0.000000 0.000000 0.000000 0.000000 0.000000 20.872793 1.128106 0.582643 57.693944 14.932491 13.272813 2.621242 41.766457 0.014635 3.948321 5.889274 0.206336 0.041312 -0.130480 0.000000 0.000000 0.000000 0.000000 0.000000 0.000000 0.000000 
